<svg xmlns="http://www.w3.org/2000/svg" viewBox="0 0 64 64" role="img" aria-label="Favicon clinica veterinaria">
  <defs>
    <linearGradient id="bg" x1="8" y1="6" x2="56" y2="58" gradientUnits="userSpaceOnUse">
      <stop offset="0" stop-color="#6e5aa6" />
      <stop offset="1" stop-color="#3f7b68" />
    </linearGradient>
    <linearGradient id="glass" x1="18" y1="16" x2="48" y2="48" gradientUnits="userSpaceOnUse">
      <stop offset="0" stop-color="#ffffff" stop-opacity="0.92" />
      <stop offset="1" stop-color="#f3efe6" stop-opacity="0.98" />
    </linearGradient>
  </defs>
  <rect x="4" y="4" width="56" height="56" rx="18" fill="url(#bg)" />
  <circle cx="32" cy="32" r="21" fill="url(#glass)" />
  <path d="M29 20h6v9h9v6h-9v9h-6v-9h-9v-6h9z" fill="#4f8a72" />
  <g fill="#6e5aa6">
    <circle cx="25" cy="19.5" r="3.3" />
    <circle cx="39" cy="19.5" r="3.3" />
    <circle cx="21.5" cy="28" r="3" />
    <circle cx="42.5" cy="28" r="3" />
    <path d="M32 24.5c-3.6 0-6.5 3-6.5 6.6 0 1.6.6 3.2 1.7 4.4 1.2 1.3 3.1 3.1 4.8 4.5.6.5 1.4.5 2 0 1.7-1.4 3.6-3.2 4.8-4.5 1.1-1.2 1.7-2.8 1.7-4.4 0-3.6-2.9-6.6-6.5-6.6Z" />
  </g>
</svg>
